<?xml version="1.0" encoding="UTF-8"?> <svg xmlns="http://www.w3.org/2000/svg" width="600" height="171.73" viewBox="0 0 600 171.73"><defs><style> .cls-1 { fill: #fff; } .cls-2 { fill: #85e5d7; } .cls-3 { fill: #00c1ae; } </style></defs><title>logo-header-v</title><g id="Livello_2" data-name="Livello 2"><g id="Livello_1-2" data-name="Livello 1"><g><rect class="cls-1" x="158.69" y="3.13" width="1.42" height="168.59"></rect><g><path class="cls-1" d="M212.53,96.22H195.72V31.77h26.57A30.37,30.37,0,0,1,231.66,33a17.6,17.6,0,0,1,6.77,4.2q6.27,6,6.28,15.94A27.62,27.62,0,0,1,243.36,62a19.22,19.22,0,0,1-3.86,6.81q-5.3,6-16.56,6H212.53ZM218,61.34q4.8,0,7-1.93t2.21-6.09q0-8.12-9.12-8.12h-5.57V61.34Z"></path><path class="cls-1" d="M317.47,96.22H296.6L280.75,71.48V96.22H263.94V31.77h26a27.67,27.67,0,0,1,9.27,1.35,16.7,16.7,0,0,1,6.58,4.35A20.27,20.27,0,0,1,309.83,44a20.74,20.74,0,0,1,1.45,7.73,21.17,21.17,0,0,1-1.54,8.11A16.05,16.05,0,0,1,305.39,66a14.14,14.14,0,0,1-3.48,2.27,31.16,31.16,0,0,1-4.73,1.59ZM283.82,60.66c3.2,0,5.56-.58,7.1-1.74a7.44,7.44,0,0,0,2.25-2.75,7.69,7.69,0,0,0,.91-3.53,7.41,7.41,0,0,0-.91-3.48,8.55,8.55,0,0,0-2.25-2.8c-1.67-1.16-4-1.74-7.1-1.74h-3.07v16Z"></path><path class="cls-1" d="M351.09,96.22H334.28V31.77h16.81Z"></path><path class="cls-1" d="M409.55,48.49q-5.51-4.35-11-4.35a8.07,8.07,0,0,0-5.13,1.59,4.91,4.91,0,0,0-2,4,3.92,3.92,0,0,0,1.54,3.19,12.66,12.66,0,0,0,1.26,1,9.93,9.93,0,0,0,1.59.82,23.2,23.2,0,0,0,2.71.92c1.12.32,2.62.77,4.49,1.35q8.5,2.52,12.17,6.67t3.68,11.4q0,11-6.57,16.72A23.77,23.77,0,0,1,404,96.32a33.56,33.56,0,0,1-10.38,1.54A36.94,36.94,0,0,1,382.16,96a42.47,42.47,0,0,1-10.87-5.37l7.15-13.48a31.92,31.92,0,0,0,7.53,5,17.72,17.72,0,0,0,7.25,1.6,9.27,9.27,0,0,0,5.9-1.75,5.5,5.5,0,0,0,2.22-4.55,4.94,4.94,0,0,0-2.08-4.16c-1.39-1-4-2.13-8-3.29q-5.32-1.65-7.93-2.71A16.48,16.48,0,0,1,379,64.78Q373.89,60.52,373.9,52a23.88,23.88,0,0,1,1.59-8.86A19.65,19.65,0,0,1,380,36.28a20.67,20.67,0,0,1,6.91-4.46,24,24,0,0,1,8.94-1.6,40.65,40.65,0,0,1,10.29,1.36,50.34,50.34,0,0,1,10.1,3.86Z"></path><path class="cls-1" d="M447,31.77h16.53l13,34.4,13.82-34.4h16.71l9.67,64.45H500.09l-4.73-37.1L479.8,96.22h-6.67l-14.88-37.1-5.51,37.1H436.12Z"></path><path class="cls-1" d="M554.68,85l-4.44,11.21H532.56l24.73-64.45h18.26l24.26,64.45H581.93L577.78,85Zm11.7-33.43-7.06,20.58h13.92Z"></path></g><g><path class="cls-2" d="M195.77,140.29h3V129.93h-3V127.4h5.55v12.89h2.94v2.41h-8.49Zm2.57-18.53a1.63,1.63,0,0,1,.53-1.23,1.73,1.73,0,0,1,1.23-.51,1.6,1.6,0,0,1,1.16.51,1.64,1.64,0,0,1,.51,1.23,1.56,1.56,0,0,1-.51,1.22,1.69,1.69,0,0,1-1.16.47,1.82,1.82,0,0,1-1.23-.47A1.55,1.55,0,0,1,198.34,121.76Z"></path><path class="cls-2" d="M231.46,140.29h3.14v-7.64a3.39,3.39,0,0,0-.88-2.07,3.33,3.33,0,0,0-2.44-1,6.47,6.47,0,0,0-2.19.38,5.92,5.92,0,0,0-1.84,1.08,5.42,5.42,0,0,0-1.29,1.64,4.44,4.44,0,0,0-.49,2.06v5.52h2.77v2.41H219.8v-2.41h3.14v-7.64a3.45,3.45,0,0,0-.88-2.07,3.33,3.33,0,0,0-2.43-1,6,6,0,0,0-2.22.4,6.67,6.67,0,0,0-1.86,1.1,5,5,0,0,0-1.28,1.65,4.68,4.68,0,0,0-.47,2.09v5.44h2.82v2.41h-8.49v-2.41h3.14V129.93h-2.81V127.4h5l0,.9c0,.57.07,1.08.11,1.53s.07,1,.1,1.53a6.94,6.94,0,0,1,2.61-3.1,7.51,7.51,0,0,1,4.08-1.18,5.18,5.18,0,0,1,3.48,1.12,4.52,4.52,0,0,1,1.58,3,6.88,6.88,0,0,1,2.61-3,7.45,7.45,0,0,1,4-1.12,5.23,5.23,0,0,1,3.69,1.26,4.55,4.55,0,0,1,1.45,3.31v8.64h2.77v2.41h-8.44Z"></path><path class="cls-2" d="M244.15,150.49h2.73V129.93h-3.1V127.4H249c0,.47,0,.93,0,1.39s.07.93.12,1.39a3.3,3.3,0,0,1,.68-1,5.42,5.42,0,0,1,1.28-1,9,9,0,0,1,1.77-.8,7,7,0,0,1,2.1-.32,8.17,8.17,0,0,1,3.21.63,8,8,0,0,1,2.57,1.71,8.19,8.19,0,0,1,1.71,2.53,7.94,7.94,0,0,1,0,6.2,8.28,8.28,0,0,1-1.71,2.55,7.92,7.92,0,0,1-2.57,1.73,8.17,8.17,0,0,1-3.21.64,7.53,7.53,0,0,1-2.14-.29,8.37,8.37,0,0,1-1.71-.71,5.71,5.71,0,0,1-1.24-.92,3.4,3.4,0,0,1-.7-.94,5.61,5.61,0,0,1,.13.61,2.9,2.9,0,0,0,.12.57v9.1h3.22v2.41h-8.48ZM260.54,135a5.38,5.38,0,0,0-.41-2.12,5,5,0,0,0-1.14-1.72,5.34,5.34,0,0,0-1.76-1.16,5.93,5.93,0,0,0-2.25-.42,5.81,5.81,0,0,0-2.22.42,5.34,5.34,0,0,0-1.76,1.16,5.42,5.42,0,0,0-1.59,3.84,5.36,5.36,0,0,0,.43,2.17,5.58,5.58,0,0,0,1.16,1.74,5.22,5.22,0,0,0,1.76,1.17,5.63,5.63,0,0,0,2.22.43,5.75,5.75,0,0,0,2.25-.43,5.22,5.22,0,0,0,1.76-1.17,5.36,5.36,0,0,0,1.14-1.74A5.52,5.52,0,0,0,260.54,135Z"></path><path class="cls-2" d="M267,140.29h3.14V129.93h-2.82V127.4h5l0,.9c0,.57.06,1.08.1,1.53s.08,1,.1,1.53a7.41,7.41,0,0,1,1.23-1.81,8.22,8.22,0,0,1,1.57-1.35,6.78,6.78,0,0,1,1.71-.84,5.29,5.29,0,0,1,1.65-.28l-.16,2.53a6.63,6.63,0,0,0-2.35.4,5.75,5.75,0,0,0-1.85,1.1,5,5,0,0,0-1.23,1.65,4.81,4.81,0,0,0-.45,2.09v5.44h2.82v2.41H267Z"></path><path class="cls-2" d="M282.53,135a7.78,7.78,0,0,1,.63-3.1,7.94,7.94,0,0,1,1.73-2.55,8.37,8.37,0,0,1,2.57-1.71,7.9,7.9,0,0,1,3.14-.63,8.23,8.23,0,0,1,5.79,2.34,8,8,0,0,1,1.74,2.55,7.78,7.78,0,0,1,.63,3.1,7.7,7.7,0,0,1-.63,3.12,8,8,0,0,1-1.74,2.53A8.23,8.23,0,0,1,290.6,143a7.9,7.9,0,0,1-3.14-.63,8.37,8.37,0,0,1-2.57-1.71,8,8,0,0,1-1.73-2.53A7.7,7.7,0,0,1,282.53,135Zm2.52,0a5.4,5.4,0,0,0,.43,2.13,5.58,5.58,0,0,0,1.17,1.72,5.57,5.57,0,0,0,3.89,1.58,5.76,5.76,0,0,0,3.95-1.58,5.46,5.46,0,0,0,1.19-1.72,5.4,5.4,0,0,0,.43-2.13,5.53,5.53,0,0,0-.43-2.14,5.48,5.48,0,0,0-3-2.94,5.67,5.67,0,0,0-2.17-.42,5.53,5.53,0,0,0-2.15.42,5.26,5.26,0,0,0-1.74,1.18,5.57,5.57,0,0,0-1.6,3.9Z"></path><path class="cls-2" d="M302.65,127.4H311v2.53h-2.4q1.26,2.31,2.49,4.63t2.16,4.63c.62-1.51,1.34-3,2.14-4.61s1.64-3.11,2.51-4.65h-2.41V127.4h8.24v2.53h-3.18l-3.65,6.85-3.65,6.86c-1.23-2.3-2.44-4.58-3.65-6.86s-2.43-4.55-3.65-6.85h-3.27Z"></path><path class="cls-2" d="M342.73,133.32l-11.87,4.53a5.16,5.16,0,0,0,1.93,1.92,5.72,5.72,0,0,0,4.9.33,5.06,5.06,0,0,0,1.65-1.07l.76.92c.25.31.52.61.79.91a7.92,7.92,0,0,1-2.39,1.59,7.17,7.17,0,0,1-2.87.57,7.86,7.86,0,0,1-3.14-.63,8.25,8.25,0,0,1-2.57-1.71,7.8,7.8,0,0,1-1.73-2.53,7.88,7.88,0,0,1,0-6.22,7.78,7.78,0,0,1,1.73-2.55,8.25,8.25,0,0,1,2.57-1.71,7.86,7.86,0,0,1,3.14-.63,6,6,0,0,1,2.38.47,6.87,6.87,0,0,1,2,1.3,8.7,8.7,0,0,1,1.62,2A10.19,10.19,0,0,1,342.73,133.32Zm-7.13-3.75a5.68,5.68,0,0,0-2.35.48,5.59,5.59,0,0,0-1.81,1.3,5.48,5.48,0,0,0-1.11,1.86,5,5,0,0,0-.25,2.23l4.69-1.78q2.36-.87,4.69-1.77a4.92,4.92,0,0,0-1.62-1.68A4.06,4.06,0,0,0,335.6,129.57Z"></path><path class="cls-2" d="M362.3,150.49h3.55c.63-1.31,1.27-2.6,1.94-3.9s1.31-2.57,1.94-3.85c-1.09-2.13-2.17-4.27-3.25-6.4s-2.15-4.27-3.24-6.41H360V127.4h8.32v2.53h-2.41q1.39,2.59,2.73,5.22t2.41,5.26q1.07-2.58,2.41-5.22t2.73-5.26h-2.45V127.4h8.16v2.53h-3.14q-2.61,5.16-5.2,10.26t-5.16,10.3h2.32v2.41h-8.4Z"></path><path class="cls-2" d="M385.84,135a7.78,7.78,0,0,1,.63-3.1,7.94,7.94,0,0,1,1.73-2.55,8.37,8.37,0,0,1,2.57-1.71,7.9,7.9,0,0,1,3.14-.63,8.23,8.23,0,0,1,5.79,2.34,8,8,0,0,1,1.74,2.55,7.78,7.78,0,0,1,.63,3.1,7.7,7.7,0,0,1-.63,3.12,8,8,0,0,1-1.74,2.53,8.23,8.23,0,0,1-5.79,2.34,7.9,7.9,0,0,1-3.14-.63,8.37,8.37,0,0,1-2.57-1.71,8,8,0,0,1-1.73-2.53A7.7,7.7,0,0,1,385.84,135Zm2.52,0a5.4,5.4,0,0,0,.43,2.13,5.58,5.58,0,0,0,1.17,1.72,5.57,5.57,0,0,0,3.89,1.58,5.76,5.76,0,0,0,3.95-1.58A5.46,5.46,0,0,0,399,137.2a5.4,5.4,0,0,0,.43-2.13,5.53,5.53,0,0,0-.43-2.14,5.48,5.48,0,0,0-3-2.94,5.67,5.67,0,0,0-2.17-.42,5.53,5.53,0,0,0-2.15.42,5.26,5.26,0,0,0-1.74,1.18,5.57,5.57,0,0,0-1.6,3.9Z"></path><path class="cls-2" d="M405.94,127.4h5.39v10a3.31,3.31,0,0,0,.87,2.09,3.4,3.4,0,0,0,2.43,1,6.29,6.29,0,0,0,2.2-.39,5.41,5.41,0,0,0,1.86-1.09,5.56,5.56,0,0,0,1.28-1.65,4.39,4.39,0,0,0,.49-2.07v-5.37h-2.85V127.4H423v13.14h2.69v2.16h-5.14l0-2.12.09-1.84a6.69,6.69,0,0,1-2.64,3.12A7.31,7.31,0,0,1,413.9,143a5.14,5.14,0,0,1-3.67-1.25,4.52,4.52,0,0,1-1.43-3.28v-8.56h-2.86Z"></path><path class="cls-2" d="M429.56,140.29h3.14V129.93h-2.82V127.4h5l0,.9c0,.57.06,1.08.1,1.53s.08,1,.1,1.53a7.41,7.41,0,0,1,1.23-1.81,8.22,8.22,0,0,1,1.57-1.35,7,7,0,0,1,1.71-.84,5.39,5.39,0,0,1,1.65-.28l-.16,2.53a6.67,6.67,0,0,0-2.35.4,5.86,5.86,0,0,0-1.85,1.1,4.86,4.86,0,0,0-1.22,1.65,4.81,4.81,0,0,0-.45,2.09v5.44H438v2.41h-8.48Z"></path><path class="cls-2" d="M458.39,140.29h3.06V114.64h-2.77v-2.53H464v16.31c-.05.3-.1.58-.14.84s-.09.52-.15.8a2.87,2.87,0,0,1,.7-.94,6.55,6.55,0,0,1,1.3-1,8.36,8.36,0,0,1,1.76-.78,7.19,7.19,0,0,1,2.12-.3,7.95,7.95,0,0,1,5.73,2.36A8.52,8.52,0,0,1,477,132a7.84,7.84,0,0,1,0,6.16,8.28,8.28,0,0,1-1.71,2.55,7.95,7.95,0,0,1-5.73,2.36,7.63,7.63,0,0,1-4-1.06,6.07,6.07,0,0,1-1.24-.93,2.91,2.91,0,0,1-.66-.9v2.57h-5.3ZM475.11,135a5.74,5.74,0,0,0-.4-2.15,5.33,5.33,0,0,0-1.15-1.74A5.48,5.48,0,0,0,471.8,130a5.76,5.76,0,0,0-2.21-.42,5.85,5.85,0,0,0-2.25.42,5.37,5.37,0,0,0-1.76,1.15,5.55,5.55,0,0,0-1.17,1.74,5.64,5.64,0,0,0,0,4.32,5.58,5.58,0,0,0,1.17,1.72,5.37,5.37,0,0,0,1.76,1.15,5.86,5.86,0,0,0,2.25.43,5.76,5.76,0,0,0,2.21-.43,5.48,5.48,0,0,0,1.76-1.15,5.35,5.35,0,0,0,1.15-1.72A5.7,5.7,0,0,0,475.11,135Z"></path><path class="cls-2" d="M481.52,127.4h5.38v10a3.15,3.15,0,0,0,3.31,3.05,6.34,6.34,0,0,0,2.2-.39,5.46,5.46,0,0,0,1.85-1.09,5.76,5.76,0,0,0,1.29-1.65,4.51,4.51,0,0,0,.49-2.07v-5.37h-2.86V127.4h5.39v13.14h2.69v2.16h-5.14l0-2.12.08-1.84a6.61,6.61,0,0,1-2.63,3.12,7.32,7.32,0,0,1-4.06,1.16,5.15,5.15,0,0,1-3.67-1.25,4.56,4.56,0,0,1-1.43-3.28v-8.56h-2.85Z"></path><path class="cls-2" d="M508,138.17V140a3.76,3.76,0,0,0,1.31.44,13.08,13.08,0,0,0,1.48.08,3.54,3.54,0,0,0,.6-.08,2.83,2.83,0,0,0,.8-.33,2.72,2.72,0,0,0,.72-.64,2,2,0,0,0,.35-1.1,1.62,1.62,0,0,0-.47-1.35,4.17,4.17,0,0,0-1.29-.77q-.78-.3-1.71-.57a7.69,7.69,0,0,1-1.72-.71,3.57,3.57,0,0,1-1.87-3.43,4.06,4.06,0,0,1,1.59-3.38,5,5,0,0,1,1.51-.78,5.53,5.53,0,0,1,1.55-.24q.29,0,.84.06a9.64,9.64,0,0,1,1.18.22,6.79,6.79,0,0,1,1.25.47,3.8,3.8,0,0,1,1.06.8v3.26h-2.29v-1.85a2.66,2.66,0,0,0-1.05-.35,6.18,6.18,0,0,0-.88-.08,2.73,2.73,0,0,0-1.63.48,1.61,1.61,0,0,0,0,2.56,7.15,7.15,0,0,0,1.33.72l1.66.64a7.31,7.31,0,0,1,1.64.86,4.52,4.52,0,0,1,1.27,1.34,3.8,3.8,0,0,1,.52,2.08,4.84,4.84,0,0,1-.25,1.43,4.62,4.62,0,0,1-.81,1.55,4.5,4.5,0,0,1-1.55,1.23,5.7,5.7,0,0,1-2.49.48,9.68,9.68,0,0,1-1.26-.08,9,9,0,0,1-1.37-.26,7.65,7.65,0,0,1-1.31-.49,3.46,3.46,0,0,1-1-.76v-3.26Z"></path><path class="cls-2" d="M519.49,140.29h3V129.93h-3V127.4H525v12.89H528v2.41h-8.48Zm2.57-18.53a1.63,1.63,0,0,1,.53-1.23,1.7,1.7,0,0,1,1.22-.51,1.73,1.73,0,0,1,1.67,1.74A1.56,1.56,0,0,1,525,123a1.71,1.71,0,0,1-1.17.47,1.79,1.79,0,0,1-1.22-.47A1.55,1.55,0,0,1,522.06,121.76Z"></path><path class="cls-2" d="M543.47,140.29h3.18v-7.64a3.38,3.38,0,0,0-.87-2.07,3.33,3.33,0,0,0-2.43-1,6,6,0,0,0-2.22.4,6.4,6.4,0,0,0-1.86,1.1,5,5,0,0,0-1.28,1.65,4.55,4.55,0,0,0-.47,2.09v5.44h2.81v2.41h-8.48v-2.41H535v-10.4h-2.82V127.4h5l0,.9c0,.57.06,1.08.1,1.53s.08,1,.1,1.53a6.68,6.68,0,0,1,2.64-3.12,7.37,7.37,0,0,1,4.05-1.16,5.14,5.14,0,0,1,3.67,1.26,4.57,4.57,0,0,1,1.43,3.31v8.64H552v2.41h-8.48Z"></path><path class="cls-2" d="M571,133.32l-11.87,4.53a5.26,5.26,0,0,0,1.94,1.92,5.45,5.45,0,0,0,2.83.73,5.36,5.36,0,0,0,2.06-.4,5.21,5.21,0,0,0,1.66-1.07l.75.92c.26.31.52.61.8.91a8.05,8.05,0,0,1-2.39,1.59,7.19,7.19,0,0,1-2.88.57,7.9,7.9,0,0,1-3.14-.63,8.49,8.49,0,0,1-2.57-1.71,8,8,0,0,1-1.73-2.53,7.7,7.7,0,0,1-.63-3.12,7.78,7.78,0,0,1,.63-3.1,7.94,7.94,0,0,1,1.73-2.55,8.49,8.49,0,0,1,2.57-1.71,7.9,7.9,0,0,1,3.14-.63,6,6,0,0,1,2.39.47,6.87,6.87,0,0,1,2,1.3,8.67,8.67,0,0,1,1.61,2A9.82,9.82,0,0,1,571,133.32Zm-7.13-3.75a5.63,5.63,0,0,0-2.34.48,5.49,5.49,0,0,0-1.81,1.3,5.18,5.18,0,0,0-1.11,1.86,5,5,0,0,0-.25,2.23l4.69-1.78,4.69-1.77a4.86,4.86,0,0,0-1.63-1.68A4.06,4.06,0,0,0,563.87,129.57Z"></path><path class="cls-2" d="M577.85,138.17V140a3.81,3.81,0,0,0,1.32.44,13.08,13.08,0,0,0,1.48.08,3.45,3.45,0,0,0,.59-.08,3,3,0,0,0,.81-.33,2.72,2.72,0,0,0,.72-.64,2,2,0,0,0,.34-1.1,1.62,1.62,0,0,0-.47-1.35,4.05,4.05,0,0,0-1.29-.77c-.52-.2-1.09-.39-1.7-.57a7.5,7.5,0,0,1-1.72-.71,3.87,3.87,0,0,1-1.34-1.24,3.94,3.94,0,0,1-.53-2.19,4.06,4.06,0,0,1,1.59-3.38,4.82,4.82,0,0,1,1.51-.78,5.47,5.47,0,0,1,1.55-.24,8.16,8.16,0,0,1,.83.06,9.78,9.78,0,0,1,1.19.22,6.7,6.7,0,0,1,1.24.47,3.66,3.66,0,0,1,1.06.8v3.26h-2.28v-1.85a2.66,2.66,0,0,0-1-.35,6.3,6.3,0,0,0-.89-.08,2.72,2.72,0,0,0-1.62.48,1.62,1.62,0,0,0,0,2.56,7.26,7.26,0,0,0,1.34.72l1.66.64a7.53,7.53,0,0,1,1.64.86,4.52,4.52,0,0,1,1.27,1.34,3.89,3.89,0,0,1,.51,2.08,5.14,5.14,0,0,1-.24,1.43,4.65,4.65,0,0,1-.82,1.55,4.41,4.41,0,0,1-1.55,1.23,5.62,5.62,0,0,1-2.48.48,9.72,9.72,0,0,1-1.27-.08,9.19,9.19,0,0,1-1.37-.26,7.87,7.87,0,0,1-1.3-.49,3.46,3.46,0,0,1-1-.76v-3.26Z"></path><path class="cls-2" d="M592.21,138.17V140a3.81,3.81,0,0,0,1.32.44,13,13,0,0,0,1.48.08,3.58,3.58,0,0,0,.59-.08,2.83,2.83,0,0,0,.8-.33,2.44,2.44,0,0,0,.72-.64,2,2,0,0,0,.35-1.1A1.62,1.62,0,0,0,597,137a4.05,4.05,0,0,0-1.29-.77q-.78-.3-1.71-.57a7.69,7.69,0,0,1-1.72-.71,3.54,3.54,0,0,1-1.86-3.43,4.22,4.22,0,0,1,.44-2,4.13,4.13,0,0,1,1.15-1.36,4.82,4.82,0,0,1,1.51-.78,5.47,5.47,0,0,1,1.55-.24c.19,0,.46,0,.83.06a9.64,9.64,0,0,1,1.18.22,6.53,6.53,0,0,1,1.25.47,3.66,3.66,0,0,1,1.06.8v3.26H597.1v-1.85a2.66,2.66,0,0,0-1.05-.35,6.07,6.07,0,0,0-.88-.08,2.75,2.75,0,0,0-1.63.48,1.61,1.61,0,0,0,0,2.56,7.15,7.15,0,0,0,1.33.72l1.66.64a7.61,7.61,0,0,1,1.65.86,4.65,4.65,0,0,1,1.27,1.34,3.89,3.89,0,0,1,.51,2.08,5.14,5.14,0,0,1-.24,1.43,4.83,4.83,0,0,1-.82,1.55,4.5,4.5,0,0,1-1.55,1.23,5.64,5.64,0,0,1-2.49.48,9.68,9.68,0,0,1-1.26-.08,9,9,0,0,1-1.37-.26,7.55,7.55,0,0,1-1.3-.49,3.34,3.34,0,0,1-1-.76v-3.26Z"></path></g><g><polygon class="cls-3" points="59.89 130.86 113.33 100.01 77.14 79.11 59.89 89.07 59.89 130.86"></polygon><polygon class="cls-2" points="79.29 55.47 79.29 75.39 115.48 96.29 115.48 34.57 79.29 55.47"></polygon><polygon class="cls-3" points="59.89 41.79 77.14 51.75 113.33 30.85 59.89 0 59.89 41.79"></polygon><polygon class="cls-2" points="38.34 51.75 55.59 41.79 55.59 0 2.15 30.85 38.34 51.75"></polygon><polygon class="cls-3" points="10.07 170.56 36.19 76.33 36.19 55.47 0 34.57 0 170.56 10.07 170.56"></polygon></g></g></g></g></svg> 