<svg xmlns="http://www.w3.org/2000/svg" width="1925.33" height="1088.07" viewBox="0 0 1925.33 1088.07">
  <defs>
    <style>
      .cls-1 {
        fill: #29343f;
      }

      .cls-2 {
        opacity: 0.05;
      }

      .cls-3 {
        fill: none;
      }

      .cls-3, .cls-4 {
        stroke: #fff;
        stroke-miterlimit: 10;
        stroke-width: 2px;
      }

      .cls-4 {
        fill: #fff;
      }
    </style>
  </defs>
  <title>sfondo5</title>
  <g id="Livello_2" data-name="Livello 2">
    <g id="Livello_1-2" data-name="Livello 1">
      <g>
        <rect class="cls-1" x="1" y="1" width="1923.33" height="1086.07"/>
        <g class="cls-2">
          <g>
            <polygon class="cls-3" points="1 1 1 57.31 3.55 58.78 48.66 32.73 48.66 1 1 1"/>
            <path class="cls-4" d="M116.29,71.78C78,50.49,41,27.49,2.64,6.16"/>
            <path class="cls-4" d="M3.55,6.33C4,49.49,4,93.49,3.55,136.87"/>
            <path class="cls-4" d="M1,8.17l3.46-2L1,8.15Z"/>
            <polygon class="cls-3" points="1 1 1 135.4 3.55 136.87 116.29 71.78 116.29 1 1 1"/>
          </g>
          <g>
            <polygon class="cls-3" points="183.92 1 183.92 32.73 229.04 58.78 274.15 32.73 274.15 1 183.92 1"/>
            <path class="cls-4" d="M341.79,71.78l-6.09-3.52L319.14,58.7,294.67,44.58,264.85,27.36,232.22,8.52l-4.09-2.36"/>
            <path class="cls-4" d="M229,6.33c-.06,43.16-.06,87.16,0,130.54"/>
            <path class="cls-4" d="M230,6.16c-14,8.33-27,15.33-41,24.33-12,6-23,13-35,19-13,8-25,15-37.69,22.29"/>
            <polygon class="cls-3" points="116.29 1 116.29 71.78 229.04 136.87 341.79 71.78 341.79 1 116.29 1"/>
          </g>
          <g>
            <polygon class="cls-3" points="409.42 1 409.42 32.73 454.53 58.78 499.65 32.73 499.65 1 409.42 1"/>
            <path class="cls-4" d="M567.28,71.78C529,50.49,492,27.49,453.62,6.16"/>
            <path class="cls-4" d="M454.53,6.33c.45,43.16.45,87.16,0,130.54"/>
            <path class="cls-4" d="M455.44,6.16C417,28.49,380,50.49,341.79,71.78"/>
            <polygon class="cls-3" points="341.79 1 341.79 71.78 454.53 136.87 567.28 71.78 567.28 1 341.79 1"/>
          </g>
          <g>
            <polygon class="cls-3" points="634.91 1 634.91 32.73 680.02 58.78 725.14 32.73 725.14 1 634.91 1"/>
            <path class="cls-4" d="M792.77,71.78l-6.09-3.52L770.13,58.7,745.66,44.58,715.83,27.36,683.21,8.52l-4.1-2.36"/>
            <path class="cls-4" d="M680,6.33c0,43.16,0,87.16,0,130.54"/>
            <path class="cls-4" d="M680.93,6.16C658,18.49,637,32.49,614,45.49a35.52,35.52,0,0,0-9,4c-13,9-25,15-37.7,22.29"/>
            <polygon class="cls-3" points="567.28 1 567.28 71.78 680.02 136.87 792.77 71.78 792.77 1 567.28 1"/>
          </g>
          <g>
            <polygon class="cls-3" points="860.4 1 860.4 32.73 905.52 58.78 950.63 32.73 950.63 1 860.4 1"/>
            <path class="cls-4" d="M1018.26,71.78C1007,66.49,998,59.49,987,54.49c-10-5-19-11-29-17-4-3-8-5-12-8-3-2-6-2-9-4-11-7-21-13-32.37-19.33"/>
            <path class="cls-4" d="M905.52,6.33c.46,43.16.46,87.16,0,130.54"/>
            <path class="cls-4" d="M906.43,6.16C868,28.49,831,50.49,792.77,71.78"/>
            <polygon class="cls-3" points="792.77 1 792.77 71.78 905.52 136.87 1018.26 71.78 1018.26 1 792.77 1"/>
          </g>
          <g>
            <polygon class="cls-3" points="1085.89 1 1085.89 32.73 1131.01 58.78 1176.13 32.73 1176.13 1 1085.89 1"/>
            <path class="cls-4" d="M1243.76,71.78l-6.09-3.52-16.56-9.56-24.47-14.12-29.82-17.22L1134.19,8.52l-4.09-2.36"/>
            <path class="cls-4" d="M1131,6.33c0,43.16,0,87.16,0,130.54"/>
            <path class="cls-4" d="M1131.92,6.16C1125,9.49,1118,14.49,1111,18.49c-16,9-30,17-46,27-3,2-6,2-9,4-13,9-25,15-37.72,22.29"/>
            <polygon class="cls-3" points="1018.26 1 1018.26 71.78 1131.01 136.87 1243.76 71.78 1243.76 1 1018.26 1"/>
          </g>
          <g>
            <polygon class="cls-3" points="1311.38 1 1311.38 32.73 1356.5 58.78 1401.62 32.73 1401.62 1 1311.38 1"/>
            <path class="cls-4" d="M1469.25,71.78C1458,66.49,1449,59.49,1438,54.49c-10-5-19-11-29-17-4-3-8-5-12-8-3-2-6-2-9-4-11-7-21-13-32.39-19.33"/>
            <path class="cls-4" d="M1356.5,6.33c.48,43.16.48,87.16,0,130.54"/>
            <path class="cls-4" d="M1357.41,6.16C1319,28.49,1282,50.49,1243.76,71.78"/>
            <polygon class="cls-3" points="1243.76 1 1243.76 71.78 1356.5 136.87 1469.25 71.78 1469.25 1 1243.76 1"/>
          </g>
          <g>
            <polygon class="cls-3" points="1536.88 1 1536.88 32.73 1581.99 58.78 1627.11 32.73 1627.11 1 1536.88 1"/>
            <path class="cls-4" d="M1694.74,71.78l-6.09-3.52L1672.1,58.7l-24.47-14.12L1617.8,27.36,1585.18,8.52l-4.1-2.36"/>
            <path class="cls-4" d="M1582,6.33c0,43.16,0,87.16,0,130.54"/>
            <path class="cls-4" d="M1582.9,6.16C1576,9.49,1569,14.49,1562,18.49c-16,9-30,17-46,27-3,2-6,2-9,4-13,9-25,15-37.73,22.29"/>
            <polygon class="cls-3" points="1469.25 1 1469.25 71.78 1581.99 136.87 1694.74 71.78 1694.74 1 1469.25 1"/>
          </g>
          <g>
            <polygon class="cls-3" points="1762.37 1 1762.37 32.73 1807.49 58.78 1852.6 32.73 1852.6 1 1762.37 1"/>
            <path class="cls-4" d="M1920.23,71.78C1909,66.49,1900,59.49,1889,54.49c-10-5-19-11-29-17-4-3-8-5-12-8-3-2-6-2-9-4-11-7-21-13-32.4-19.33"/>
            <path class="cls-4" d="M1807.49,6.33c.49,43.16.49,87.16,0,130.54"/>
            <path class="cls-4" d="M1808.4,6.16C1770,28.49,1733,50.49,1694.74,71.78"/>
            <polygon class="cls-3" points="1694.74 1 1694.74 71.78 1807.49 136.87 1920.23 71.78 1920.23 1 1694.74 1"/>
          </g>
          <g>
            <polygon class="cls-3" points="161.41 228.01 161.41 175.91 116.29 149.87 71.18 175.91 71.18 228.01 116.29 254.06 161.41 228.01"/>
            <line class="cls-4" x1="229.04" y1="267.06" x2="3.55" y2="136.87"/>
            <line class="cls-4" x1="116.29" y1="71.78" x2="116.29" y2="332.15"/>
            <line class="cls-4" x1="229.04" y1="136.87" x2="3.55" y2="267.06"/>
            <polygon class="cls-3" points="229.04 267.06 229.04 136.87 116.29 71.78 3.55 136.87 3.55 267.06 116.29 332.15 229.04 267.06"/>
          </g>
          <g>
            <polygon class="cls-3" points="386.9 228.01 386.9 175.91 341.79 149.87 296.67 175.91 296.67 228.01 341.79 254.06 386.9 228.01"/>
            <line class="cls-4" x1="454.53" y1="267.06" x2="229.04" y2="136.87"/>
            <line class="cls-4" x1="341.79" y1="71.78" x2="341.79" y2="332.15"/>
            <line class="cls-4" x1="454.53" y1="136.87" x2="229.04" y2="267.06"/>
            <polygon class="cls-3" points="454.53 267.06 454.53 136.87 341.79 71.78 229.04 136.87 229.04 267.06 341.79 332.15 454.53 267.06"/>
          </g>
          <g>
            <polygon class="cls-3" points="612.39 228.01 612.39 175.91 567.28 149.87 522.16 175.91 522.16 228.01 567.28 254.06 612.39 228.01"/>
            <line class="cls-4" x1="680.02" y1="267.06" x2="454.53" y2="136.87"/>
            <line class="cls-4" x1="567.28" y1="71.78" x2="567.28" y2="332.15"/>
            <line class="cls-4" x1="680.02" y1="136.87" x2="454.53" y2="267.06"/>
            <polygon class="cls-3" points="680.02 267.06 680.02 136.87 567.28 71.78 454.53 136.87 454.53 267.06 567.28 332.15 680.02 267.06"/>
          </g>
          <g>
            <polygon class="cls-3" points="837.89 228.01 837.89 175.91 792.77 149.87 747.65 175.91 747.65 228.01 792.77 254.06 837.89 228.01"/>
            <line class="cls-4" x1="905.52" y1="267.06" x2="680.02" y2="136.87"/>
            <line class="cls-4" x1="792.77" y1="71.78" x2="792.77" y2="332.15"/>
            <line class="cls-4" x1="905.52" y1="136.87" x2="680.02" y2="267.06"/>
            <polygon class="cls-3" points="905.52 267.06 905.52 136.87 792.77 71.78 680.02 136.87 680.02 267.06 792.77 332.15 905.52 267.06"/>
          </g>
          <g>
            <polygon class="cls-3" points="1063.38 228.01 1063.38 175.91 1018.26 149.87 973.15 175.91 973.15 228.01 1018.26 254.06 1063.38 228.01"/>
            <line class="cls-4" x1="1131.01" y1="267.06" x2="905.52" y2="136.87"/>
            <line class="cls-4" x1="1018.26" y1="71.78" x2="1018.26" y2="332.15"/>
            <line class="cls-4" x1="1131.01" y1="136.87" x2="905.52" y2="267.06"/>
            <polygon class="cls-3" points="1131.01 267.06 1131.01 136.87 1018.26 71.78 905.52 136.87 905.52 267.06 1018.26 332.15 1131.01 267.06"/>
          </g>
          <g>
            <polygon class="cls-3" points="1288.87 228.01 1288.87 175.91 1243.76 149.87 1198.64 175.91 1198.64 228.01 1243.76 254.06 1288.87 228.01"/>
            <line class="cls-4" x1="1356.5" y1="267.06" x2="1131.01" y2="136.87"/>
            <line class="cls-4" x1="1243.76" y1="71.78" x2="1243.76" y2="332.15"/>
            <line class="cls-4" x1="1356.5" y1="136.87" x2="1131.01" y2="267.06"/>
            <polygon class="cls-3" points="1356.5 267.06 1356.5 136.87 1243.76 71.78 1131.01 136.87 1131.01 267.06 1243.76 332.15 1356.5 267.06"/>
          </g>
          <g>
            <polygon class="cls-3" points="1514.36 228.01 1514.36 175.91 1469.25 149.87 1424.13 175.91 1424.13 228.01 1469.25 254.06 1514.36 228.01"/>
            <line class="cls-4" x1="1581.99" y1="267.06" x2="1356.5" y2="136.87"/>
            <line class="cls-4" x1="1469.25" y1="71.78" x2="1469.25" y2="332.15"/>
            <line class="cls-4" x1="1581.99" y1="136.87" x2="1356.5" y2="267.06"/>
            <polygon class="cls-3" points="1581.99 267.06 1581.99 136.87 1469.25 71.78 1356.5 136.87 1356.5 267.06 1469.25 332.15 1581.99 267.06"/>
          </g>
          <g>
            <polygon class="cls-3" points="1739.86 228.01 1739.86 175.91 1694.74 149.87 1649.62 175.91 1649.62 228.01 1694.74 254.06 1739.86 228.01"/>
            <line class="cls-4" x1="1807.49" y1="267.06" x2="1581.99" y2="136.87"/>
            <line class="cls-4" x1="1694.74" y1="71.78" x2="1694.74" y2="332.15"/>
            <line class="cls-4" x1="1807.49" y1="136.87" x2="1581.99" y2="267.06"/>
            <polygon class="cls-3" points="1807.49 267.06 1807.49 136.87 1694.74 71.78 1581.99 136.87 1581.99 267.06 1694.74 332.15 1807.49 267.06"/>
          </g>
          <g>
            <polygon class="cls-3" points="1924.33 152.23 1920.23 149.87 1875.12 175.91 1875.12 228.01 1920.23 254.06 1924.33 251.69 1924.33 152.23"/>
            <path class="cls-4" d="M1919,201.26c-36-22.77-75-41.77-111.53-64.39"/>
            <line class="cls-4" x1="1920.23" y1="71.78" x2="1920.23" y2="332.15"/>
            <path class="cls-4" d="M1919,202.66c-36,20.83-71,41.83-108,61.83a10,10,0,0,1-3.49,2.57"/>
            <polygon class="cls-3" points="1924.33 74.14 1920.23 71.78 1807.49 136.87 1807.49 267.06 1920.23 332.15 1924.33 329.79 1924.33 74.14"/>
          </g>
          <g>
            <polygon class="cls-3" points="3.55 345.09 1 346.56 1 447.81 3.55 449.29 48.66 423.24 48.66 371.14 3.55 345.09"/>
            <path class="cls-4" d="M116.29,462.28C98,450.49,78,440.49,59,428.49c-18-10-36-19-52.71-29.73"/>
            <line class="cls-4" x1="3.55" y1="267" x2="3.55" y2="527.38"/>
            <path class="cls-4" d="M116.29,332.1C80,354.49,43,374.49,6.27,395.61"/>
            <polygon class="cls-3" points="3.55 267 1 268.47 1 525.91 3.55 527.38 116.29 462.28 116.29 332.1 3.55 267"/>
          </g>
          <g>
            <polygon class="cls-3" points="274.15 423.24 274.15 371.14 229.04 345.09 183.92 371.14 183.92 423.24 229.04 449.29 274.15 423.24"/>
            <line class="cls-4" x1="341.79" y1="462.28" x2="116.29" y2="332.1"/>
            <line class="cls-4" x1="229.04" y1="267" x2="229.04" y2="527.38"/>
            <line class="cls-4" x1="341.79" y1="332.1" x2="116.29" y2="462.28"/>
            <polygon class="cls-3" points="341.79 462.28 341.79 332.1 229.04 267 116.29 332.1 116.29 462.28 229.04 527.38 341.79 462.28"/>
          </g>
          <g>
            <polygon class="cls-3" points="499.65 423.24 499.65 371.14 454.53 345.09 409.42 371.14 409.42 423.24 454.53 449.29 499.65 423.24"/>
            <line class="cls-4" x1="567.28" y1="462.28" x2="341.79" y2="332.1"/>
            <line class="cls-4" x1="454.53" y1="267" x2="454.53" y2="527.38"/>
            <line class="cls-4" x1="567.28" y1="332.1" x2="341.79" y2="462.28"/>
            <polygon class="cls-3" points="567.28 462.28 567.28 332.1 454.53 267 341.79 332.1 341.79 462.28 454.53 527.38 567.28 462.28"/>
          </g>
          <g>
            <polygon class="cls-3" points="725.14 423.24 725.14 371.14 680.02 345.09 634.91 371.14 634.91 423.24 680.02 449.29 725.14 423.24"/>
            <line class="cls-4" x1="792.77" y1="462.28" x2="567.28" y2="332.1"/>
            <line class="cls-4" x1="680.02" y1="267" x2="680.02" y2="527.38"/>
            <line class="cls-4" x1="792.77" y1="332.1" x2="567.28" y2="462.28"/>
            <polygon class="cls-3" points="792.77 462.28 792.77 332.1 680.02 267 567.28 332.1 567.28 462.28 680.02 527.38 792.77 462.28"/>
          </g>
          <g>
            <polygon class="cls-3" points="950.63 423.24 950.63 371.14 905.52 345.09 860.4 371.14 860.4 423.24 905.52 449.29 950.63 423.24"/>
            <line class="cls-4" x1="1018.26" y1="462.28" x2="792.77" y2="332.1"/>
            <line class="cls-4" x1="905.52" y1="267" x2="905.52" y2="527.38"/>
            <line class="cls-4" x1="1018.26" y1="332.1" x2="792.77" y2="462.28"/>
            <polygon class="cls-3" points="1018.26 462.28 1018.26 332.1 905.52 267 792.77 332.1 792.77 462.28 905.52 527.38 1018.26 462.28"/>
          </g>
          <g>
            <polygon class="cls-3" points="1176.13 423.24 1176.13 371.14 1131.01 345.09 1085.89 371.14 1085.89 423.24 1131.01 449.29 1176.13 423.24"/>
            <line class="cls-4" x1="1243.76" y1="462.28" x2="1018.26" y2="332.1"/>
            <line class="cls-4" x1="1131.01" y1="267" x2="1131.01" y2="527.38"/>
            <line class="cls-4" x1="1243.76" y1="332.1" x2="1018.26" y2="462.28"/>
            <polygon class="cls-3" points="1243.76 462.28 1243.76 332.1 1131.01 267 1018.26 332.1 1018.26 462.28 1131.01 527.38 1243.76 462.28"/>
          </g>
          <g>
            <polygon class="cls-3" points="1401.62 423.24 1401.62 371.14 1356.5 345.09 1311.38 371.14 1311.38 423.24 1356.5 449.29 1401.62 423.24"/>
            <line class="cls-4" x1="1469.25" y1="462.28" x2="1243.76" y2="332.1"/>
            <line class="cls-4" x1="1356.5" y1="267" x2="1356.5" y2="527.38"/>
            <line class="cls-4" x1="1469.25" y1="332.1" x2="1243.76" y2="462.28"/>
            <polygon class="cls-3" points="1469.25 462.28 1469.25 332.1 1356.5 267 1243.76 332.1 1243.76 462.28 1356.5 527.38 1469.25 462.28"/>
          </g>
          <g>
            <polygon class="cls-3" points="1627.11 423.24 1627.11 371.14 1581.99 345.09 1536.88 371.14 1536.88 423.24 1581.99 449.29 1627.11 423.24"/>
            <line class="cls-4" x1="1694.74" y1="462.28" x2="1469.25" y2="332.1"/>
            <line class="cls-4" x1="1581.99" y1="267" x2="1581.99" y2="527.38"/>
            <line class="cls-4" x1="1694.74" y1="332.1" x2="1469.25" y2="462.28"/>
            <polygon class="cls-3" points="1694.74 462.28 1694.74 332.1 1581.99 267 1469.25 332.1 1469.25 462.28 1581.99 527.38 1694.74 462.28"/>
          </g>
          <g>
            <polygon class="cls-3" points="1852.6 423.24 1852.6 371.14 1807.49 345.09 1762.37 371.14 1762.37 423.24 1807.49 449.29 1852.6 423.24"/>
            <line class="cls-4" x1="1920.23" y1="462.28" x2="1694.74" y2="332.1"/>
            <line class="cls-4" x1="1807.49" y1="267" x2="1807.49" y2="527.38"/>
            <line class="cls-4" x1="1920.23" y1="332.1" x2="1694.74" y2="462.28"/>
            <polygon class="cls-3" points="1920.23 462.28 1920.23 332.1 1807.49 267 1694.74 332.1 1694.74 462.28 1807.49 527.38 1920.23 462.28"/>
          </g>
          <g>
            <polygon class="cls-3" points="161.41 618.52 161.41 566.42 116.29 540.38 71.18 566.42 71.18 618.52 116.29 644.57 161.41 618.52"/>
            <line class="cls-4" x1="229.04" y1="657.57" x2="3.55" y2="527.38"/>
            <line class="cls-4" x1="116.29" y1="462.28" x2="116.29" y2="722.66"/>
            <line class="cls-4" x1="229.04" y1="527.38" x2="3.55" y2="657.57"/>
            <polygon class="cls-3" points="229.04 657.57 229.04 527.38 116.29 462.28 3.55 527.38 3.55 657.57 116.29 722.66 229.04 657.57"/>
          </g>
          <g>
            <polygon class="cls-3" points="386.9 618.52 386.9 566.42 341.79 540.38 296.67 566.42 296.67 618.52 341.79 644.57 386.9 618.52"/>
            <line class="cls-4" x1="454.53" y1="657.57" x2="229.04" y2="527.38"/>
            <line class="cls-4" x1="341.79" y1="462.28" x2="341.79" y2="722.66"/>
            <line class="cls-4" x1="454.53" y1="527.38" x2="229.04" y2="657.57"/>
            <polygon class="cls-3" points="454.53 657.57 454.53 527.38 341.79 462.28 229.04 527.38 229.04 657.57 341.79 722.66 454.53 657.57"/>
          </g>
          <g>
            <polygon class="cls-3" points="612.39 618.52 612.39 566.42 567.28 540.38 522.16 566.42 522.16 618.52 567.28 644.57 612.39 618.52"/>
            <line class="cls-4" x1="680.02" y1="657.57" x2="454.53" y2="527.38"/>
            <line class="cls-4" x1="567.28" y1="462.28" x2="567.28" y2="722.66"/>
            <line class="cls-4" x1="680.02" y1="527.38" x2="454.53" y2="657.57"/>
            <polygon class="cls-3" points="680.02 657.57 680.02 527.38 567.28 462.28 454.53 527.38 454.53 657.57 567.28 722.66 680.02 657.57"/>
          </g>
          <g>
            <polygon class="cls-3" points="837.89 618.52 837.89 566.42 792.77 540.38 747.65 566.42 747.65 618.52 792.77 644.57 837.89 618.52"/>
            <line class="cls-4" x1="905.52" y1="657.57" x2="680.02" y2="527.38"/>
            <line class="cls-4" x1="792.77" y1="462.28" x2="792.77" y2="722.66"/>
            <line class="cls-4" x1="905.52" y1="527.38" x2="680.02" y2="657.57"/>
            <polygon class="cls-3" points="905.52 657.57 905.52 527.38 792.77 462.28 680.02 527.38 680.02 657.57 792.77 722.66 905.52 657.57"/>
          </g>
          <g>
            <polygon class="cls-3" points="1063.38 618.52 1063.38 566.42 1018.26 540.38 973.15 566.42 973.15 618.52 1018.26 644.57 1063.38 618.52"/>
            <line class="cls-4" x1="1131.01" y1="657.57" x2="905.52" y2="527.38"/>
            <line class="cls-4" x1="1018.26" y1="462.28" x2="1018.26" y2="722.66"/>
            <line class="cls-4" x1="1131.01" y1="527.38" x2="905.52" y2="657.57"/>
            <polygon class="cls-3" points="1131.01 657.57 1131.01 527.38 1018.26 462.28 905.52 527.38 905.52 657.57 1018.26 722.66 1131.01 657.57"/>
          </g>
          <g>
            <polygon class="cls-3" points="1288.87 618.52 1288.87 566.42 1243.76 540.38 1198.64 566.42 1198.64 618.52 1243.76 644.57 1288.87 618.52"/>
            <line class="cls-4" x1="1356.5" y1="657.57" x2="1131.01" y2="527.38"/>
            <line class="cls-4" x1="1243.76" y1="462.28" x2="1243.76" y2="722.66"/>
            <line class="cls-4" x1="1356.5" y1="527.38" x2="1131.01" y2="657.57"/>
            <polygon class="cls-3" points="1356.5 657.57 1356.5 527.38 1243.76 462.28 1131.01 527.38 1131.01 657.57 1243.76 722.66 1356.5 657.57"/>
          </g>
          <g>
            <polygon class="cls-3" points="1514.36 618.52 1514.36 566.42 1469.25 540.38 1424.13 566.42 1424.13 618.52 1469.25 644.57 1514.36 618.52"/>
            <line class="cls-4" x1="1581.99" y1="657.57" x2="1356.5" y2="527.38"/>
            <line class="cls-4" x1="1469.25" y1="462.28" x2="1469.25" y2="722.66"/>
            <line class="cls-4" x1="1581.99" y1="527.38" x2="1356.5" y2="657.57"/>
            <polygon class="cls-3" points="1581.99 657.57 1581.99 527.38 1469.25 462.28 1356.5 527.38 1356.5 657.57 1469.25 722.66 1581.99 657.57"/>
          </g>
          <g>
            <polygon class="cls-3" points="1739.86 618.52 1739.86 566.42 1694.74 540.38 1649.62 566.42 1649.62 618.52 1694.74 644.57 1739.86 618.52"/>
            <line class="cls-4" x1="1807.49" y1="657.57" x2="1581.99" y2="527.38"/>
            <line class="cls-4" x1="1694.74" y1="462.28" x2="1694.74" y2="722.66"/>
            <line class="cls-4" x1="1807.49" y1="527.38" x2="1581.99" y2="657.57"/>
            <polygon class="cls-3" points="1807.49 657.57 1807.49 527.38 1694.74 462.28 1581.99 527.38 1581.99 657.57 1694.74 722.66 1807.49 657.57"/>
          </g>
          <g>
            <polygon class="cls-3" points="1924.33 542.74 1920.23 540.38 1875.12 566.42 1875.12 618.52 1920.23 644.57 1924.33 642.2 1924.33 542.74"/>
            <path class="cls-4" d="M1919,591.77c-18-10.28-35-20.28-53-31.28-20-11-39-22-58.49-33.11"/>
            <line class="cls-4" x1="1920.23" y1="462.28" x2="1920.23" y2="722.66"/>
            <path class="cls-4" d="M1919,593.17c-18,10.32-35,20.32-53,31.32-3,2-6,2-9,4-4,3-8,5-12,8-13,7-25,14-37.49,21.08"/>
            <polygon class="cls-3" points="1924.33 464.65 1920.23 462.28 1807.49 527.38 1807.49 657.57 1920.23 722.66 1924.33 720.29 1924.33 464.65"/>
          </g>
          <g>
            <polygon class="cls-3" points="3.55 735.6 1 737.07 1 838.32 3.55 839.79 48.66 813.75 48.66 761.65 3.55 735.6"/>
            <path class="cls-4" d="M116.29,852.79C95,841.49,75,828.49,54,817.49c-16-10-32-19-47.71-28.22"/>
            <line class="cls-4" x1="3.55" y1="657.51" x2="3.55" y2="917.89"/>
            <path class="cls-4" d="M116.29,722.6c-3.31,2.89-6.31,2.89-9.31,4.89-35,22-67,39-100.71,58.63"/>
            <polygon class="cls-3" points="3.55 657.51 1 658.98 1 916.42 3.55 917.89 116.29 852.79 116.29 722.6 3.55 657.51"/>
          </g>
          <g>
            <polygon class="cls-3" points="274.15 813.75 274.15 761.65 229.04 735.6 183.92 761.65 183.92 813.75 229.04 839.79 274.15 813.75"/>
            <line class="cls-4" x1="341.79" y1="852.79" x2="116.29" y2="722.6"/>
            <line class="cls-4" x1="229.04" y1="657.51" x2="229.04" y2="917.89"/>
            <line class="cls-4" x1="341.79" y1="722.6" x2="116.29" y2="852.79"/>
            <polygon class="cls-3" points="341.79 852.79 341.79 722.6 229.04 657.51 116.29 722.6 116.29 852.79 229.04 917.89 341.79 852.79"/>
          </g>
          <g>
            <polygon class="cls-3" points="499.65 813.75 499.65 761.65 454.53 735.6 409.42 761.65 409.42 813.75 454.53 839.79 499.65 813.75"/>
            <line class="cls-4" x1="567.28" y1="852.79" x2="341.79" y2="722.6"/>
            <line class="cls-4" x1="454.53" y1="657.51" x2="454.53" y2="917.89"/>
            <line class="cls-4" x1="567.28" y1="722.6" x2="341.79" y2="852.79"/>
            <polygon class="cls-3" points="567.28 852.79 567.28 722.6 454.53 657.51 341.79 722.6 341.79 852.79 454.53 917.89 567.28 852.79"/>
          </g>
          <g>
            <polygon class="cls-3" points="725.14 813.75 725.14 761.65 680.02 735.6 634.91 761.65 634.91 813.75 680.02 839.79 725.14 813.75"/>
            <line class="cls-4" x1="792.77" y1="852.79" x2="567.28" y2="722.6"/>
            <line class="cls-4" x1="680.02" y1="657.51" x2="680.02" y2="917.89"/>
            <line class="cls-4" x1="792.77" y1="722.6" x2="567.28" y2="852.79"/>
            <polygon class="cls-3" points="792.77 852.79 792.77 722.6 680.02 657.51 567.28 722.6 567.28 852.79 680.02 917.89 792.77 852.79"/>
          </g>
          <g>
            <polygon class="cls-3" points="950.63 813.75 950.63 761.65 905.52 735.6 860.4 761.65 860.4 813.75 905.52 839.79 950.63 813.75"/>
            <line class="cls-4" x1="1018.26" y1="852.79" x2="792.77" y2="722.6"/>
            <line class="cls-4" x1="905.52" y1="657.51" x2="905.52" y2="917.89"/>
            <line class="cls-4" x1="1018.26" y1="722.6" x2="792.77" y2="852.79"/>
            <polygon class="cls-3" points="1018.26 852.79 1018.26 722.6 905.52 657.51 792.77 722.6 792.77 852.79 905.52 917.89 1018.26 852.79"/>
          </g>
          <g>
            <polygon class="cls-3" points="1176.13 813.75 1176.13 761.65 1131.01 735.6 1085.89 761.65 1085.89 813.75 1131.01 839.79 1176.13 813.75"/>
            <line class="cls-4" x1="1243.76" y1="852.79" x2="1018.26" y2="722.6"/>
            <line class="cls-4" x1="1131.01" y1="657.51" x2="1131.01" y2="917.89"/>
            <line class="cls-4" x1="1243.76" y1="722.6" x2="1018.26" y2="852.79"/>
            <polygon class="cls-3" points="1243.76 852.79 1243.76 722.6 1131.01 657.51 1018.26 722.6 1018.26 852.79 1131.01 917.89 1243.76 852.79"/>
          </g>
          <g>
            <polygon class="cls-3" points="1401.62 813.75 1401.62 761.65 1356.5 735.6 1311.38 761.65 1311.38 813.75 1356.5 839.79 1401.62 813.75"/>
            <line class="cls-4" x1="1469.25" y1="852.79" x2="1243.76" y2="722.6"/>
            <line class="cls-4" x1="1356.5" y1="657.51" x2="1356.5" y2="917.89"/>
            <line class="cls-4" x1="1469.25" y1="722.6" x2="1243.76" y2="852.79"/>
            <polygon class="cls-3" points="1469.25 852.79 1469.25 722.6 1356.5 657.51 1243.76 722.6 1243.76 852.79 1356.5 917.89 1469.25 852.79"/>
          </g>
          <g>
            <polygon class="cls-3" points="1627.11 813.75 1627.11 761.65 1581.99 735.6 1536.88 761.65 1536.88 813.75 1581.99 839.79 1627.11 813.75"/>
            <line class="cls-4" x1="1694.74" y1="852.79" x2="1469.25" y2="722.6"/>
            <line class="cls-4" x1="1581.99" y1="657.51" x2="1581.99" y2="917.89"/>
            <line class="cls-4" x1="1694.74" y1="722.6" x2="1469.25" y2="852.79"/>
            <polygon class="cls-3" points="1694.74 852.79 1694.74 722.6 1581.99 657.51 1469.25 722.6 1469.25 852.79 1581.99 917.89 1694.74 852.79"/>
          </g>
          <g>
            <polygon class="cls-3" points="1852.6 813.75 1852.6 761.65 1807.49 735.6 1762.37 761.65 1762.37 813.75 1807.49 839.79 1852.6 813.75"/>
            <line class="cls-4" x1="1920.23" y1="852.79" x2="1694.74" y2="722.6"/>
            <line class="cls-4" x1="1807.49" y1="657.51" x2="1807.49" y2="917.89"/>
            <line class="cls-4" x1="1920.23" y1="722.6" x2="1694.74" y2="852.79"/>
            <polygon class="cls-3" points="1920.23 852.79 1920.23 722.6 1807.49 657.51 1694.74 722.6 1694.74 852.79 1807.49 917.89 1920.23 852.79"/>
          </g>
          <g>
            <polygon class="cls-3" points="161.41 1009.03 161.41 956.93 116.29 930.88 71.18 956.93 71.18 1009.03 116.29 1035.08 161.41 1009.03"/>
            <line class="cls-4" x1="229.04" y1="1048.07" x2="3.55" y2="917.89"/>
            <path class="cls-4" d="M116.29,852.79c-.31,75.7-.31,152.7,0,229"/>
            <line class="cls-4" x1="229.04" y1="917.89" x2="3.55" y2="1048.07"/>
            <polygon class="cls-3" points="161.49 1087.07 229.04 1048.07 229.04 917.89 116.29 852.79 3.55 917.89 3.55 1048.07 71.09 1087.07 161.49 1087.07"/>
          </g>
          <g>
            <polygon class="cls-3" points="386.9 1009.03 386.9 956.93 341.79 930.88 296.67 956.93 296.67 1009.03 341.79 1035.08 386.9 1009.03"/>
            <line class="cls-4" x1="454.53" y1="1048.07" x2="229.04" y2="917.89"/>
            <path class="cls-4" d="M341.79,852.79c.19,75.7.19,152.7,0,229"/>
            <line class="cls-4" x1="454.53" y1="917.89" x2="229.04" y2="1048.07"/>
            <polygon class="cls-3" points="386.99 1087.07 454.53 1048.07 454.53 917.89 341.79 852.79 229.04 917.89 229.04 1048.07 296.58 1087.07 386.99 1087.07"/>
          </g>
          <g>
            <polygon class="cls-3" points="612.39 1009.03 612.39 956.93 567.28 930.88 522.16 956.93 522.16 1009.03 567.28 1035.08 612.39 1009.03"/>
            <line class="cls-4" x1="680.02" y1="1048.07" x2="454.53" y2="917.89"/>
            <path class="cls-4" d="M567.28,852.79c-.3,75.7-.3,152.7,0,229"/>
            <line class="cls-4" x1="680.02" y1="917.89" x2="454.53" y2="1048.07"/>
            <polygon class="cls-3" points="612.48 1087.07 680.02 1048.07 680.02 917.89 567.28 852.79 454.53 917.89 454.53 1048.07 522.08 1087.07 612.48 1087.07"/>
          </g>
          <g>
            <polygon class="cls-3" points="837.89 1009.03 837.89 956.93 792.77 930.88 747.65 956.93 747.65 1009.03 792.77 1035.08 837.89 1009.03"/>
            <line class="cls-4" x1="905.52" y1="1048.07" x2="680.02" y2="917.89"/>
            <path class="cls-4" d="M792.77,852.79c.21,75.7.21,152.7,0,229"/>
            <line class="cls-4" x1="905.52" y1="917.89" x2="680.02" y2="1048.07"/>
            <polygon class="cls-3" points="837.97 1087.07 905.52 1048.07 905.52 917.89 792.77 852.79 680.02 917.89 680.02 1048.07 747.57 1087.07 837.97 1087.07"/>
          </g>
          <g>
            <polygon class="cls-3" points="1063.38 1009.03 1063.38 956.93 1018.26 930.88 973.15 956.93 973.15 1009.03 1018.26 1035.08 1063.38 1009.03"/>
            <line class="cls-4" x1="1131.01" y1="1048.07" x2="905.52" y2="917.89"/>
            <path class="cls-4" d="M1018.26,852.79c-.28,75.7-.28,152.7,0,229"/>
            <line class="cls-4" x1="1131.01" y1="917.89" x2="905.52" y2="1048.07"/>
            <polygon class="cls-3" points="1063.46 1087.07 1131.01 1048.07 1131.01 917.89 1018.26 852.79 905.52 917.89 905.52 1048.07 973.06 1087.07 1063.46 1087.07"/>
          </g>
          <g>
            <polygon class="cls-3" points="1288.87 1009.03 1288.87 956.93 1243.76 930.88 1198.64 956.93 1198.64 1009.03 1243.76 1035.08 1288.87 1009.03"/>
            <line class="cls-4" x1="1356.5" y1="1048.07" x2="1131.01" y2="917.89"/>
            <path class="cls-4" d="M1243.76,852.79c.22,75.7.22,152.7,0,229"/>
            <line class="cls-4" x1="1356.5" y1="917.89" x2="1131.01" y2="1048.07"/>
            <polygon class="cls-3" points="1288.96 1087.07 1356.5 1048.07 1356.5 917.89 1243.76 852.79 1131.01 917.89 1131.01 1048.07 1198.55 1087.07 1288.96 1087.07"/>
          </g>
          <g>
            <polygon class="cls-3" points="1514.36 1009.03 1514.36 956.93 1469.25 930.88 1424.13 956.93 1424.13 1009.03 1469.25 1035.08 1514.36 1009.03"/>
            <line class="cls-4" x1="1581.99" y1="1048.07" x2="1356.5" y2="917.89"/>
            <path class="cls-4" d="M1469.25,852.79c-.27,75.7-.27,152.7,0,229"/>
            <line class="cls-4" x1="1581.99" y1="917.89" x2="1356.5" y2="1048.07"/>
            <polygon class="cls-3" points="1514.45 1087.07 1581.99 1048.07 1581.99 917.89 1469.25 852.79 1356.5 917.89 1356.5 1048.07 1424.05 1087.07 1514.45 1087.07"/>
          </g>
          <g>
            <polygon class="cls-3" points="1739.86 1009.03 1739.86 956.93 1694.74 930.88 1649.62 956.93 1649.62 1009.03 1694.74 1035.08 1739.86 1009.03"/>
            <line class="cls-4" x1="1807.49" y1="1048.07" x2="1581.99" y2="917.89"/>
            <path class="cls-4" d="M1694.74,852.79c.24,75.7.24,152.7,0,229"/>
            <line class="cls-4" x1="1807.49" y1="917.89" x2="1581.99" y2="1048.07"/>
            <polygon class="cls-3" points="1739.94 1087.07 1807.49 1048.07 1807.49 917.89 1694.74 852.79 1581.99 917.89 1581.99 1048.07 1649.54 1087.07 1739.94 1087.07"/>
          </g>
          <g>
            <polygon class="cls-3" points="1924.33 933.25 1920.23 930.88 1875.12 956.93 1875.12 1009.03 1920.23 1035.08 1924.33 1032.71 1924.33 933.25"/>
            <path class="cls-4" d="M1919,982.28c-36-22.79-75-41.79-111.53-64.39"/>
            <path class="cls-4" d="M1920.23,852.79c-.25,75.7-.25,152.7,0,229"/>
            <path class="cls-4" d="M1919,983.68c-36,20.81-71,41.81-108,61.81a10.09,10.09,0,0,1-3.49,2.58"/>
            <polygon class="cls-3" points="1924.33 855.16 1920.23 852.79 1807.49 917.89 1807.49 1048.07 1875.03 1087.07 1924.33 1087.07 1924.33 855.16"/>
          </g>
          <g>
            <path class="cls-4" d="M3.55,1048c.43,11.47.43,22.47,0,33.83"/>
            <polygon class="cls-3" points="1 1087.07 71.19 1087.07 3.55 1048.02 1 1049.49 1 1087.07"/>
          </g>
          <g>
            <path class="cls-4" d="M229,1048c-.06,11.47-.06,22.47,0,33.83"/>
            <polygon class="cls-3" points="296.68 1087.07 229.04 1048.02 161.4 1087.07 296.68 1087.07"/>
          </g>
          <g>
            <path class="cls-4" d="M454.53,1048c.45,11.47.45,22.47,0,33.83"/>
            <polygon class="cls-3" points="522.17 1087.07 454.53 1048.02 386.89 1087.07 522.17 1087.07"/>
          </g>
          <g>
            <path class="cls-4" d="M680,1048c0,11.47,0,22.47,0,33.83"/>
            <polygon class="cls-3" points="747.66 1087.07 680.02 1048.02 612.38 1087.07 747.66 1087.07"/>
          </g>
          <g>
            <path class="cls-4" d="M905.52,1048c.46,11.47.46,22.47,0,33.83"/>
            <polygon class="cls-3" points="973.16 1087.07 905.52 1048.02 837.88 1087.07 973.16 1087.07"/>
          </g>
          <g>
            <path class="cls-4" d="M1131,1048c0,11.47,0,22.47,0,33.83"/>
            <polygon class="cls-3" points="1198.65 1087.07 1131.01 1048.02 1063.37 1087.07 1198.65 1087.07"/>
          </g>
          <g>
            <path class="cls-4" d="M1356.5,1048c.48,11.47.48,22.47,0,33.83"/>
            <polygon class="cls-3" points="1424.14 1087.07 1356.5 1048.02 1288.86 1087.07 1424.14 1087.07"/>
          </g>
          <g>
            <path class="cls-4" d="M1582,1048c0,11.47,0,22.47,0,33.83"/>
            <polygon class="cls-3" points="1649.63 1087.07 1581.99 1048.02 1514.35 1087.07 1649.63 1087.07"/>
          </g>
          <g>
            <path class="cls-4" d="M1807.49,1048c.49,11.47.49,22.47,0,33.83"/>
            <polygon class="cls-3" points="1875.13 1087.07 1807.49 1048.02 1739.85 1087.07 1875.13 1087.07"/>
          </g>
        </g>
      </g>
    </g>
  </g>
</svg>
